<mxfile host="app.diagrams.net" modified="2024-01-03T06:54:18.981Z" agent="Mozilla/5.0 (Windows NT 10.0; Win64; x64) AppleWebKit/537.36 (KHTML, like Gecko) Chrome/120.0.0.0 Safari/537.36 Edg/120.0.0.0" etag="frvz3ifbNf-BsLfMZxSK" version="22.1.16" type="github">
  <diagram id="C5RBs43oDa-KdzZeNtuy" name="Page-1">
    <mxGraphModel dx="2095" dy="1010" grid="0" gridSize="10" guides="1" tooltips="1" connect="1" arrows="1" fold="1" page="0" pageScale="1" pageWidth="827" pageHeight="1169" math="0" shadow="0">
      <root>
        <mxCell id="WIyWlLk6GJQsqaUBKTNV-0" />
        <mxCell id="WIyWlLk6GJQsqaUBKTNV-1" parent="WIyWlLk6GJQsqaUBKTNV-0" />
        <mxCell id="QPjvkbg2EBSWsGoP1NiQ-19" value="Game Controller" style="shape=umlLifeline;perimeter=lifelinePerimeter;whiteSpace=wrap;html=1;container=1;dropTarget=0;collapsible=0;recursiveResize=0;outlineConnect=0;portConstraint=eastwest;newEdgeStyle={&quot;curved&quot;:0,&quot;rounded&quot;:0};labelBackgroundColor=none;fillColor=#A8DADC;strokeColor=#457B9D;fontColor=#1D3557;" parent="WIyWlLk6GJQsqaUBKTNV-1" vertex="1">
          <mxGeometry x="-506" y="-269" width="100" height="300" as="geometry" />
        </mxCell>
        <mxCell id="QPjvkbg2EBSWsGoP1NiQ-26" value="" style="html=1;points=[[0,0,0,0,5],[0,1,0,0,-5],[1,0,0,0,5],[1,1,0,0,-5]];perimeter=orthogonalPerimeter;outlineConnect=0;targetShapes=umlLifeline;portConstraint=eastwest;newEdgeStyle={&quot;curved&quot;:0,&quot;rounded&quot;:0};labelBackgroundColor=none;fillColor=#A8DADC;strokeColor=#457B9D;fontColor=#1D3557;" parent="QPjvkbg2EBSWsGoP1NiQ-19" vertex="1">
          <mxGeometry x="45" y="90" width="10" height="124" as="geometry" />
        </mxCell>
        <mxCell id="QPjvkbg2EBSWsGoP1NiQ-20" value="Obstacle" style="shape=umlLifeline;perimeter=lifelinePerimeter;whiteSpace=wrap;html=1;container=1;dropTarget=0;collapsible=0;recursiveResize=0;outlineConnect=0;portConstraint=eastwest;newEdgeStyle={&quot;edgeStyle&quot;:&quot;elbowEdgeStyle&quot;,&quot;elbow&quot;:&quot;vertical&quot;,&quot;curved&quot;:0,&quot;rounded&quot;:0};labelBackgroundColor=none;fillColor=#A8DADC;strokeColor=#457B9D;fontColor=#1D3557;" parent="WIyWlLk6GJQsqaUBKTNV-1" vertex="1">
          <mxGeometry x="-173" y="-269" width="100" height="300" as="geometry" />
        </mxCell>
        <mxCell id="QPjvkbg2EBSWsGoP1NiQ-33" value="" style="html=1;points=[[0,0,0,0,5],[0,1,0,0,-5],[1,0,0,0,5],[1,1,0,0,-5]];perimeter=orthogonalPerimeter;outlineConnect=0;targetShapes=umlLifeline;portConstraint=eastwest;newEdgeStyle={&quot;curved&quot;:0,&quot;rounded&quot;:0};labelBackgroundColor=none;fillColor=#A8DADC;strokeColor=#457B9D;fontColor=#1D3557;" parent="QPjvkbg2EBSWsGoP1NiQ-20" vertex="1">
          <mxGeometry x="45" y="111" width="10" height="46" as="geometry" />
        </mxCell>
        <mxCell id="QPjvkbg2EBSWsGoP1NiQ-40" style="edgeStyle=elbowEdgeStyle;rounded=0;orthogonalLoop=1;jettySize=auto;html=1;elbow=vertical;curved=0;dashed=1;labelBackgroundColor=none;strokeColor=#457B9D;fontColor=default;" parent="WIyWlLk6GJQsqaUBKTNV-1" source="QPjvkbg2EBSWsGoP1NiQ-21" edge="1">
          <mxGeometry relative="1" as="geometry">
            <mxPoint x="56.50000000000023" y="-9" as="sourcePoint" />
            <mxPoint x="-600.3333333333333" y="-9" as="targetPoint" />
          </mxGeometry>
        </mxCell>
        <mxCell id="QPjvkbg2EBSWsGoP1NiQ-41" value="Display Jump" style="edgeLabel;html=1;align=center;verticalAlign=middle;resizable=0;points=[];labelBackgroundColor=none;fontColor=#1D3557;" parent="QPjvkbg2EBSWsGoP1NiQ-40" vertex="1" connectable="0">
          <mxGeometry x="0.7461" y="2" relative="1" as="geometry">
            <mxPoint x="-15" y="-14" as="offset" />
          </mxGeometry>
        </mxCell>
        <mxCell id="QPjvkbg2EBSWsGoP1NiQ-21" value="Game UI" style="shape=umlLifeline;perimeter=lifelinePerimeter;whiteSpace=wrap;html=1;container=1;dropTarget=0;collapsible=0;recursiveResize=0;outlineConnect=0;portConstraint=eastwest;newEdgeStyle={&quot;edgeStyle&quot;:&quot;elbowEdgeStyle&quot;,&quot;elbow&quot;:&quot;vertical&quot;,&quot;curved&quot;:0,&quot;rounded&quot;:0};labelBackgroundColor=none;fillColor=#A8DADC;strokeColor=#457B9D;fontColor=#1D3557;" parent="WIyWlLk6GJQsqaUBKTNV-1" vertex="1">
          <mxGeometry x="-53" y="-269" width="100" height="300" as="geometry" />
        </mxCell>
        <mxCell id="QPjvkbg2EBSWsGoP1NiQ-22" value="Physics Engine" style="shape=umlLifeline;perimeter=lifelinePerimeter;whiteSpace=wrap;html=1;container=1;dropTarget=0;collapsible=0;recursiveResize=0;outlineConnect=0;portConstraint=eastwest;newEdgeStyle={&quot;curved&quot;:0,&quot;rounded&quot;:0};labelBackgroundColor=none;fillColor=#A8DADC;strokeColor=#457B9D;fontColor=#1D3557;" parent="WIyWlLk6GJQsqaUBKTNV-1" vertex="1">
          <mxGeometry x="-319" y="-269" width="100" height="300" as="geometry" />
        </mxCell>
        <mxCell id="QPjvkbg2EBSWsGoP1NiQ-27" value="" style="html=1;points=[[0,0,0,0,5],[0,1,0,0,-5],[1,0,0,0,5],[1,1,0,0,-5]];perimeter=orthogonalPerimeter;outlineConnect=0;targetShapes=umlLifeline;portConstraint=eastwest;newEdgeStyle={&quot;curved&quot;:0,&quot;rounded&quot;:0};labelBackgroundColor=none;fillColor=#A8DADC;strokeColor=#457B9D;fontColor=#1D3557;" parent="QPjvkbg2EBSWsGoP1NiQ-22" vertex="1">
          <mxGeometry x="45" y="101" width="10" height="69" as="geometry" />
        </mxCell>
        <mxCell id="QPjvkbg2EBSWsGoP1NiQ-23" value="Press Jump Key" style="html=1;verticalAlign=bottom;endArrow=classic;curved=0;rounded=0;endFill=1;labelBackgroundColor=none;strokeColor=#457B9D;fontColor=default;" parent="WIyWlLk6GJQsqaUBKTNV-1" edge="1">
          <mxGeometry width="80" relative="1" as="geometry">
            <mxPoint x="-598" y="-176" as="sourcePoint" />
            <mxPoint x="-462.5" y="-176" as="targetPoint" />
          </mxGeometry>
        </mxCell>
        <mxCell id="QPjvkbg2EBSWsGoP1NiQ-24" value="" style="shape=umlLifeline;perimeter=lifelinePerimeter;whiteSpace=wrap;html=1;container=1;dropTarget=0;collapsible=0;recursiveResize=0;outlineConnect=0;portConstraint=eastwest;newEdgeStyle={&quot;curved&quot;:0,&quot;rounded&quot;:0};participant=umlActor;labelBackgroundColor=none;fillColor=#A8DADC;strokeColor=#457B9D;fontColor=#1D3557;" parent="WIyWlLk6GJQsqaUBKTNV-1" vertex="1">
          <mxGeometry x="-610" y="-269" width="20" height="300" as="geometry" />
        </mxCell>
        <mxCell id="QPjvkbg2EBSWsGoP1NiQ-25" value="Player" style="text;html=1;align=center;verticalAlign=middle;resizable=0;points=[];autosize=1;strokeColor=none;fillColor=none;labelBackgroundColor=none;fontColor=#1D3557;" parent="WIyWlLk6GJQsqaUBKTNV-1" vertex="1">
          <mxGeometry x="-626" y="-290" width="52" height="26" as="geometry" />
        </mxCell>
        <mxCell id="QPjvkbg2EBSWsGoP1NiQ-30" style="edgeStyle=none;rounded=0;orthogonalLoop=1;jettySize=auto;html=1;curved=0;labelBackgroundColor=none;strokeColor=#457B9D;fontColor=default;" parent="WIyWlLk6GJQsqaUBKTNV-1" edge="1">
          <mxGeometry relative="1" as="geometry">
            <mxPoint x="-451" y="-166" as="sourcePoint" />
            <mxPoint x="-274" y="-166" as="targetPoint" />
          </mxGeometry>
        </mxCell>
        <mxCell id="QPjvkbg2EBSWsGoP1NiQ-31" value="Initiate Jump" style="edgeLabel;html=1;align=center;verticalAlign=middle;resizable=0;points=[];labelBackgroundColor=none;fontColor=#1D3557;" parent="QPjvkbg2EBSWsGoP1NiQ-30" vertex="1" connectable="0">
          <mxGeometry x="0.0094" relative="1" as="geometry">
            <mxPoint x="2" y="-8" as="offset" />
          </mxGeometry>
        </mxCell>
        <mxCell id="QPjvkbg2EBSWsGoP1NiQ-32" value="Jump Successful" style="html=1;verticalAlign=bottom;endArrow=classic;dashed=1;endSize=8;curved=0;rounded=0;endFill=1;labelBackgroundColor=none;strokeColor=#457B9D;fontColor=default;" parent="WIyWlLk6GJQsqaUBKTNV-1" edge="1">
          <mxGeometry relative="1" as="geometry">
            <mxPoint x="-272" y="-119.42" as="sourcePoint" />
            <mxPoint x="-452" y="-119" as="targetPoint" />
          </mxGeometry>
        </mxCell>
        <mxCell id="QPjvkbg2EBSWsGoP1NiQ-34" style="edgeStyle=none;rounded=0;orthogonalLoop=1;jettySize=auto;html=1;curved=0;labelBackgroundColor=none;strokeColor=#457B9D;fontColor=default;" parent="WIyWlLk6GJQsqaUBKTNV-1" edge="1">
          <mxGeometry relative="1" as="geometry">
            <mxPoint x="-263" y="-154" as="sourcePoint" />
            <mxPoint x="-129" y="-154" as="targetPoint" />
          </mxGeometry>
        </mxCell>
        <mxCell id="QPjvkbg2EBSWsGoP1NiQ-35" value="Check Colllision" style="edgeLabel;html=1;align=center;verticalAlign=middle;resizable=0;points=[];labelBackgroundColor=none;fontColor=#1D3557;" parent="QPjvkbg2EBSWsGoP1NiQ-34" vertex="1" connectable="0">
          <mxGeometry x="-0.008" y="-3" relative="1" as="geometry">
            <mxPoint x="-3" y="-11" as="offset" />
          </mxGeometry>
        </mxCell>
        <mxCell id="QPjvkbg2EBSWsGoP1NiQ-36" style="edgeStyle=none;rounded=0;orthogonalLoop=1;jettySize=auto;html=1;curved=0;dashed=1;endArrow=classic;endFill=1;labelBackgroundColor=none;strokeColor=#457B9D;fontColor=default;" parent="WIyWlLk6GJQsqaUBKTNV-1" target="QPjvkbg2EBSWsGoP1NiQ-27" edge="1">
          <mxGeometry relative="1" as="geometry">
            <mxPoint x="-128" y="-124" as="sourcePoint" />
            <mxPoint x="-263" y="-126" as="targetPoint" />
          </mxGeometry>
        </mxCell>
        <mxCell id="QPjvkbg2EBSWsGoP1NiQ-37" value="No Collision" style="edgeLabel;html=1;align=center;verticalAlign=middle;resizable=0;points=[];labelBackgroundColor=none;fontColor=#1D3557;" parent="QPjvkbg2EBSWsGoP1NiQ-36" vertex="1" connectable="0">
          <mxGeometry x="0.075" y="-1" relative="1" as="geometry">
            <mxPoint x="3" y="10" as="offset" />
          </mxGeometry>
        </mxCell>
        <mxCell id="QPjvkbg2EBSWsGoP1NiQ-38" style="edgeStyle=none;rounded=0;orthogonalLoop=1;jettySize=auto;html=1;curved=0;dashed=1;labelBackgroundColor=none;strokeColor=#457B9D;fontColor=default;" parent="WIyWlLk6GJQsqaUBKTNV-1" target="QPjvkbg2EBSWsGoP1NiQ-21" edge="1">
          <mxGeometry relative="1" as="geometry">
            <mxPoint x="-451" y="-61.99999999999977" as="sourcePoint" />
            <mxPoint x="56.50000000000023" y="-61.99999999999977" as="targetPoint" />
          </mxGeometry>
        </mxCell>
        <mxCell id="QPjvkbg2EBSWsGoP1NiQ-39" value="Update Player Position" style="edgeLabel;html=1;align=center;verticalAlign=middle;resizable=0;points=[];labelBackgroundColor=none;fontColor=#1D3557;" parent="QPjvkbg2EBSWsGoP1NiQ-38" vertex="1" connectable="0">
          <mxGeometry x="-0.7311" relative="1" as="geometry">
            <mxPoint x="22" y="-9" as="offset" />
          </mxGeometry>
        </mxCell>
        <mxCell id="QPjvkbg2EBSWsGoP1NiQ-46" value="" style="ellipse;html=1;shape=startState;fillColor=#A8DADC;strokeColor=#457B9D;fontColor=#1D3557;labelBackgroundColor=none;" parent="WIyWlLk6GJQsqaUBKTNV-1" vertex="1">
          <mxGeometry x="742" y="-101" width="30" height="30" as="geometry" />
        </mxCell>
        <mxCell id="QPjvkbg2EBSWsGoP1NiQ-47" value="" style="edgeStyle=orthogonalEdgeStyle;html=1;verticalAlign=bottom;endArrow=classic;endSize=8;strokeColor=#457B9D;rounded=0;fontColor=default;fillColor=#A8DADC;labelBackgroundColor=none;endFill=1;" parent="WIyWlLk6GJQsqaUBKTNV-1" edge="1">
          <mxGeometry relative="1" as="geometry">
            <mxPoint x="756.71" y="-42" as="targetPoint" />
            <mxPoint x="756.71" y="-74" as="sourcePoint" />
          </mxGeometry>
        </mxCell>
        <mxCell id="QPjvkbg2EBSWsGoP1NiQ-57" style="edgeStyle=orthogonalEdgeStyle;rounded=0;orthogonalLoop=1;jettySize=auto;html=1;entryX=0.5;entryY=0;entryDx=0;entryDy=0;strokeColor=#457B9D;fontColor=default;fillColor=#A8DADC;labelBackgroundColor=none;" parent="WIyWlLk6GJQsqaUBKTNV-1" source="QPjvkbg2EBSWsGoP1NiQ-48" target="QPjvkbg2EBSWsGoP1NiQ-51" edge="1">
          <mxGeometry relative="1" as="geometry" />
        </mxCell>
        <mxCell id="QPjvkbg2EBSWsGoP1NiQ-48" value="Start Game" style="rounded=1;whiteSpace=wrap;html=1;arcSize=40;fontColor=#1D3557;fillColor=#A8DADC;strokeColor=#457B9D;labelBackgroundColor=none;" parent="WIyWlLk6GJQsqaUBKTNV-1" vertex="1">
          <mxGeometry x="697" y="-41" width="120" height="40" as="geometry" />
        </mxCell>
        <mxCell id="QPjvkbg2EBSWsGoP1NiQ-52" value="" style="edgeStyle=orthogonalEdgeStyle;html=1;verticalAlign=bottom;endArrow=classic;endSize=8;strokeColor=#457B9D;rounded=0;fontColor=default;fillColor=#A8DADC;labelBackgroundColor=none;endFill=1;" parent="WIyWlLk6GJQsqaUBKTNV-1" edge="1">
          <mxGeometry relative="1" as="geometry">
            <mxPoint x="757" y="115" as="targetPoint" />
            <mxPoint x="757" y="55" as="sourcePoint" />
          </mxGeometry>
        </mxCell>
        <mxCell id="QPjvkbg2EBSWsGoP1NiQ-51" value="Select Level" style="rounded=1;whiteSpace=wrap;html=1;arcSize=40;fontColor=#1D3557;fillColor=#A8DADC;strokeColor=#457B9D;labelBackgroundColor=none;" parent="WIyWlLk6GJQsqaUBKTNV-1" vertex="1">
          <mxGeometry x="697" y="31" width="120" height="40" as="geometry" />
        </mxCell>
        <mxCell id="QPjvkbg2EBSWsGoP1NiQ-63" style="edgeStyle=orthogonalEdgeStyle;rounded=0;orthogonalLoop=1;jettySize=auto;html=1;entryX=0;entryY=0.5;entryDx=0;entryDy=0;strokeColor=#457B9D;fontColor=default;fillColor=#A8DADC;labelBackgroundColor=none;" parent="WIyWlLk6GJQsqaUBKTNV-1" source="QPjvkbg2EBSWsGoP1NiQ-58" target="QPjvkbg2EBSWsGoP1NiQ-59" edge="1">
          <mxGeometry relative="1" as="geometry" />
        </mxCell>
        <mxCell id="QPjvkbg2EBSWsGoP1NiQ-66" style="edgeStyle=orthogonalEdgeStyle;rounded=0;orthogonalLoop=1;jettySize=auto;html=1;entryX=0.5;entryY=0;entryDx=0;entryDy=0;strokeColor=#457B9D;fontColor=default;fillColor=#A8DADC;labelBackgroundColor=none;" parent="WIyWlLk6GJQsqaUBKTNV-1" source="QPjvkbg2EBSWsGoP1NiQ-58" target="QPjvkbg2EBSWsGoP1NiQ-61" edge="1">
          <mxGeometry relative="1" as="geometry" />
        </mxCell>
        <mxCell id="QPjvkbg2EBSWsGoP1NiQ-58" value="Level Available?" style="shape=hexagon;perimeter=hexagonPerimeter2;whiteSpace=wrap;html=1;fixedSize=1;strokeColor=#457B9D;fontColor=#1D3557;fillColor=#A8DADC;labelBackgroundColor=none;" parent="WIyWlLk6GJQsqaUBKTNV-1" vertex="1">
          <mxGeometry x="697" y="115" width="120" height="36" as="geometry" />
        </mxCell>
        <mxCell id="QPjvkbg2EBSWsGoP1NiQ-59" value="Display Unavailable Message" style="rounded=1;whiteSpace=wrap;html=1;arcSize=40;fontColor=#1D3557;fillColor=#A8DADC;strokeColor=#457B9D;labelBackgroundColor=none;" parent="WIyWlLk6GJQsqaUBKTNV-1" vertex="1">
          <mxGeometry x="893" y="113" width="190" height="40" as="geometry" />
        </mxCell>
        <mxCell id="QPjvkbg2EBSWsGoP1NiQ-60" value="" style="edgeStyle=orthogonalEdgeStyle;html=1;verticalAlign=bottom;endArrow=classic;endSize=8;strokeColor=#457B9D;rounded=0;fontColor=default;fillColor=#A8DADC;labelBackgroundColor=none;entryX=0.5;entryY=0;entryDx=0;entryDy=0;exitX=0.5;exitY=1;exitDx=0;exitDy=0;endFill=1;" parent="WIyWlLk6GJQsqaUBKTNV-1" source="QPjvkbg2EBSWsGoP1NiQ-59" target="QPjvkbg2EBSWsGoP1NiQ-95" edge="1">
          <mxGeometry relative="1" as="geometry">
            <mxPoint x="977" y="287" as="targetPoint" />
            <mxPoint x="977.0526315789475" y="153" as="sourcePoint" />
            <Array as="points">
              <mxPoint x="988" y="287" />
              <mxPoint x="987" y="287" />
            </Array>
          </mxGeometry>
        </mxCell>
        <mxCell id="QPjvkbg2EBSWsGoP1NiQ-61" value="Enter Level" style="rounded=1;whiteSpace=wrap;html=1;arcSize=40;fontColor=#1D3557;fillColor=#A8DADC;strokeColor=#457B9D;labelBackgroundColor=none;" parent="WIyWlLk6GJQsqaUBKTNV-1" vertex="1">
          <mxGeometry x="537" y="156" width="120" height="40" as="geometry" />
        </mxCell>
        <mxCell id="QPjvkbg2EBSWsGoP1NiQ-62" value="" style="edgeStyle=orthogonalEdgeStyle;html=1;verticalAlign=bottom;endArrow=classic;endSize=8;strokeColor=#457B9D;rounded=0;fontColor=default;fillColor=#A8DADC;labelBackgroundColor=none;endFill=1;" parent="WIyWlLk6GJQsqaUBKTNV-1" edge="1">
          <mxGeometry relative="1" as="geometry">
            <mxPoint x="597" y="232" as="targetPoint" />
            <mxPoint x="597" y="196" as="sourcePoint" />
          </mxGeometry>
        </mxCell>
        <mxCell id="QPjvkbg2EBSWsGoP1NiQ-64" value="No" style="text;html=1;align=center;verticalAlign=middle;resizable=0;points=[];autosize=1;strokeColor=none;fillColor=none;fontColor=#1D3557;labelBackgroundColor=none;" parent="WIyWlLk6GJQsqaUBKTNV-1" vertex="1">
          <mxGeometry x="821" y="113" width="33" height="26" as="geometry" />
        </mxCell>
        <mxCell id="QPjvkbg2EBSWsGoP1NiQ-67" value="Yes" style="text;html=1;align=center;verticalAlign=middle;resizable=0;points=[];autosize=1;strokeColor=none;fillColor=none;fontColor=#1D3557;labelBackgroundColor=none;" parent="WIyWlLk6GJQsqaUBKTNV-1" vertex="1">
          <mxGeometry x="654" y="113" width="38" height="26" as="geometry" />
        </mxCell>
        <mxCell id="QPjvkbg2EBSWsGoP1NiQ-83" style="edgeStyle=orthogonalEdgeStyle;rounded=0;orthogonalLoop=1;jettySize=auto;html=1;entryX=0.5;entryY=0;entryDx=0;entryDy=0;strokeColor=#457B9D;fontColor=default;fillColor=#A8DADC;labelBackgroundColor=none;" parent="WIyWlLk6GJQsqaUBKTNV-1" source="QPjvkbg2EBSWsGoP1NiQ-68" target="QPjvkbg2EBSWsGoP1NiQ-81" edge="1">
          <mxGeometry relative="1" as="geometry">
            <Array as="points">
              <mxPoint x="488" y="252" />
              <mxPoint x="488" y="628" />
              <mxPoint x="597" y="628" />
            </Array>
          </mxGeometry>
        </mxCell>
        <mxCell id="QPjvkbg2EBSWsGoP1NiQ-68" value="Level in Progrees" style="rounded=1;whiteSpace=wrap;html=1;arcSize=40;fontColor=#1D3557;fillColor=#A8DADC;strokeColor=#457B9D;labelBackgroundColor=none;" parent="WIyWlLk6GJQsqaUBKTNV-1" vertex="1">
          <mxGeometry x="537" y="232" width="120" height="40" as="geometry" />
        </mxCell>
        <mxCell id="QPjvkbg2EBSWsGoP1NiQ-69" value="" style="edgeStyle=orthogonalEdgeStyle;html=1;verticalAlign=bottom;endArrow=classic;endSize=8;strokeColor=#457B9D;rounded=0;fontColor=default;fillColor=#A8DADC;labelBackgroundColor=none;exitX=0.5;exitY=1;exitDx=0;exitDy=0;endFill=1;entryX=0.5;entryY=0;entryDx=0;entryDy=0;" parent="WIyWlLk6GJQsqaUBKTNV-1" source="QPjvkbg2EBSWsGoP1NiQ-68" target="QPjvkbg2EBSWsGoP1NiQ-70" edge="1">
          <mxGeometry relative="1" as="geometry">
            <mxPoint x="596" y="301" as="targetPoint" />
            <mxPoint x="596" y="277" as="sourcePoint" />
          </mxGeometry>
        </mxCell>
        <mxCell id="QPjvkbg2EBSWsGoP1NiQ-70" value="Play Level" style="rounded=1;whiteSpace=wrap;html=1;arcSize=40;fontColor=#1D3557;fillColor=#A8DADC;strokeColor=#457B9D;labelBackgroundColor=none;" parent="WIyWlLk6GJQsqaUBKTNV-1" vertex="1">
          <mxGeometry x="537" y="303" width="120" height="34" as="geometry" />
        </mxCell>
        <mxCell id="QPjvkbg2EBSWsGoP1NiQ-71" value="" style="edgeStyle=orthogonalEdgeStyle;html=1;verticalAlign=bottom;endArrow=classic;endSize=8;strokeColor=#457B9D;rounded=0;fontColor=default;fillColor=#A8DADC;labelBackgroundColor=none;endFill=1;exitX=0.5;exitY=1;exitDx=0;exitDy=0;" parent="WIyWlLk6GJQsqaUBKTNV-1" source="QPjvkbg2EBSWsGoP1NiQ-70" edge="1">
          <mxGeometry relative="1" as="geometry">
            <mxPoint x="597" y="383" as="targetPoint" />
            <mxPoint x="597" y="349" as="sourcePoint" />
          </mxGeometry>
        </mxCell>
        <mxCell id="QPjvkbg2EBSWsGoP1NiQ-77" style="edgeStyle=orthogonalEdgeStyle;rounded=0;orthogonalLoop=1;jettySize=auto;html=1;entryX=1;entryY=0.5;entryDx=0;entryDy=0;strokeColor=#457B9D;fontColor=default;fillColor=#A8DADC;labelBackgroundColor=none;exitX=1;exitY=0.5;exitDx=0;exitDy=0;" parent="WIyWlLk6GJQsqaUBKTNV-1" source="QPjvkbg2EBSWsGoP1NiQ-72" target="QPjvkbg2EBSWsGoP1NiQ-76" edge="1">
          <mxGeometry relative="1" as="geometry">
            <mxPoint x="671" y="404" as="sourcePoint" />
            <Array as="points">
              <mxPoint x="657" y="400" />
              <mxPoint x="700" y="400" />
              <mxPoint x="700" y="559" />
              <mxPoint x="625" y="559" />
            </Array>
          </mxGeometry>
        </mxCell>
        <mxCell id="QPjvkbg2EBSWsGoP1NiQ-72" value="Life Lost?" style="rounded=1;whiteSpace=wrap;html=1;arcSize=40;fontColor=#1D3557;fillColor=#A8DADC;strokeColor=#457B9D;labelBackgroundColor=none;" parent="WIyWlLk6GJQsqaUBKTNV-1" vertex="1">
          <mxGeometry x="536.5" y="384" width="120" height="25" as="geometry" />
        </mxCell>
        <mxCell id="QPjvkbg2EBSWsGoP1NiQ-73" value="" style="edgeStyle=orthogonalEdgeStyle;html=1;verticalAlign=bottom;endArrow=classic;endSize=8;strokeColor=#457B9D;rounded=0;fontColor=default;fillColor=#A8DADC;labelBackgroundColor=none;endFill=1;" parent="WIyWlLk6GJQsqaUBKTNV-1" edge="1">
          <mxGeometry relative="1" as="geometry">
            <mxPoint x="597" y="454" as="targetPoint" />
            <mxPoint x="597" y="410" as="sourcePoint" />
          </mxGeometry>
        </mxCell>
        <mxCell id="QPjvkbg2EBSWsGoP1NiQ-74" value="Respawn at checkpoint" style="rounded=1;whiteSpace=wrap;html=1;arcSize=40;fontColor=#1D3557;fillColor=#A8DADC;strokeColor=#457B9D;labelBackgroundColor=none;" parent="WIyWlLk6GJQsqaUBKTNV-1" vertex="1">
          <mxGeometry x="521.5" y="455" width="151" height="29" as="geometry" />
        </mxCell>
        <mxCell id="QPjvkbg2EBSWsGoP1NiQ-75" value="" style="edgeStyle=orthogonalEdgeStyle;html=1;verticalAlign=bottom;endArrow=classic;endSize=8;strokeColor=#457B9D;rounded=0;fontColor=default;fillColor=#A8DADC;labelBackgroundColor=none;endFill=1;" parent="WIyWlLk6GJQsqaUBKTNV-1" edge="1">
          <mxGeometry relative="1" as="geometry">
            <mxPoint x="597" y="531" as="targetPoint" />
            <mxPoint x="597" y="484" as="sourcePoint" />
          </mxGeometry>
        </mxCell>
        <mxCell id="QPjvkbg2EBSWsGoP1NiQ-80" style="edgeStyle=orthogonalEdgeStyle;rounded=0;orthogonalLoop=1;jettySize=auto;html=1;entryX=1;entryY=0.5;entryDx=0;entryDy=0;strokeColor=#457B9D;fontColor=default;fillColor=#A8DADC;labelBackgroundColor=none;" parent="WIyWlLk6GJQsqaUBKTNV-1" source="QPjvkbg2EBSWsGoP1NiQ-76" target="QPjvkbg2EBSWsGoP1NiQ-68" edge="1">
          <mxGeometry relative="1" as="geometry">
            <Array as="points">
              <mxPoint x="597" y="611" />
              <mxPoint x="763" y="611" />
              <mxPoint x="763" y="252" />
            </Array>
          </mxGeometry>
        </mxCell>
        <mxCell id="QPjvkbg2EBSWsGoP1NiQ-76" value="" style="rhombus;whiteSpace=wrap;html=1;strokeColor=#457B9D;fontColor=#1D3557;fillColor=#A8DADC;labelBackgroundColor=none;" parent="WIyWlLk6GJQsqaUBKTNV-1" vertex="1">
          <mxGeometry x="569" y="530" width="56" height="56" as="geometry" />
        </mxCell>
        <mxCell id="QPjvkbg2EBSWsGoP1NiQ-78" value="No" style="text;html=1;align=center;verticalAlign=middle;resizable=0;points=[];autosize=1;strokeColor=none;fillColor=none;fontColor=#1D3557;labelBackgroundColor=none;" parent="WIyWlLk6GJQsqaUBKTNV-1" vertex="1">
          <mxGeometry x="675" y="381" width="33" height="26" as="geometry" />
        </mxCell>
        <mxCell id="QPjvkbg2EBSWsGoP1NiQ-79" value="Yes" style="text;html=1;align=center;verticalAlign=middle;resizable=0;points=[];autosize=1;strokeColor=none;fillColor=none;fontColor=#1D3557;labelBackgroundColor=none;" parent="WIyWlLk6GJQsqaUBKTNV-1" vertex="1">
          <mxGeometry x="591" y="414" width="38" height="26" as="geometry" />
        </mxCell>
        <mxCell id="QPjvkbg2EBSWsGoP1NiQ-88" style="edgeStyle=orthogonalEdgeStyle;rounded=0;orthogonalLoop=1;jettySize=auto;html=1;entryX=0.5;entryY=0;entryDx=0;entryDy=0;strokeColor=#457B9D;fontColor=default;fillColor=#A8DADC;labelBackgroundColor=none;" parent="WIyWlLk6GJQsqaUBKTNV-1" source="QPjvkbg2EBSWsGoP1NiQ-81" target="QPjvkbg2EBSWsGoP1NiQ-86" edge="1">
          <mxGeometry relative="1" as="geometry" />
        </mxCell>
        <mxCell id="QPjvkbg2EBSWsGoP1NiQ-89" style="edgeStyle=orthogonalEdgeStyle;rounded=0;orthogonalLoop=1;jettySize=auto;html=1;entryX=0.5;entryY=0;entryDx=0;entryDy=0;strokeColor=#457B9D;fontColor=default;fillColor=#A8DADC;labelBackgroundColor=none;" parent="WIyWlLk6GJQsqaUBKTNV-1" source="QPjvkbg2EBSWsGoP1NiQ-81" target="QPjvkbg2EBSWsGoP1NiQ-87" edge="1">
          <mxGeometry relative="1" as="geometry" />
        </mxCell>
        <mxCell id="QPjvkbg2EBSWsGoP1NiQ-81" value="Level Complete?" style="shape=hexagon;perimeter=hexagonPerimeter2;whiteSpace=wrap;html=1;fixedSize=1;strokeColor=#457B9D;fontColor=#1D3557;fillColor=#A8DADC;labelBackgroundColor=none;" parent="WIyWlLk6GJQsqaUBKTNV-1" vertex="1">
          <mxGeometry x="537" y="646" width="120" height="31" as="geometry" />
        </mxCell>
        <mxCell id="QPjvkbg2EBSWsGoP1NiQ-84" value="No" style="text;html=1;align=center;verticalAlign=middle;resizable=0;points=[];autosize=1;strokeColor=none;fillColor=none;fontColor=#1D3557;labelBackgroundColor=none;" parent="WIyWlLk6GJQsqaUBKTNV-1" vertex="1">
          <mxGeometry x="503" y="231" width="33" height="26" as="geometry" />
        </mxCell>
        <mxCell id="QPjvkbg2EBSWsGoP1NiQ-93" style="edgeStyle=orthogonalEdgeStyle;rounded=0;orthogonalLoop=1;jettySize=auto;html=1;entryX=0;entryY=0.5;entryDx=0;entryDy=0;strokeColor=#457B9D;fontColor=default;fillColor=#A8DADC;labelBackgroundColor=none;" parent="WIyWlLk6GJQsqaUBKTNV-1" source="QPjvkbg2EBSWsGoP1NiQ-86" target="QPjvkbg2EBSWsGoP1NiQ-92" edge="1">
          <mxGeometry relative="1" as="geometry">
            <Array as="points">
              <mxPoint x="446" y="771" />
            </Array>
          </mxGeometry>
        </mxCell>
        <mxCell id="QPjvkbg2EBSWsGoP1NiQ-86" value="Unlock Next Level" style="rounded=1;whiteSpace=wrap;html=1;arcSize=40;fontColor=#1D3557;fillColor=#A8DADC;strokeColor=#457B9D;labelBackgroundColor=none;" parent="WIyWlLk6GJQsqaUBKTNV-1" vertex="1">
          <mxGeometry x="370.5" y="707" width="151" height="25" as="geometry" />
        </mxCell>
        <mxCell id="QPjvkbg2EBSWsGoP1NiQ-87" value="Retry or Exit to Menu" style="rounded=1;whiteSpace=wrap;html=1;arcSize=40;fontColor=#1D3557;fillColor=#A8DADC;strokeColor=#457B9D;labelBackgroundColor=none;" parent="WIyWlLk6GJQsqaUBKTNV-1" vertex="1">
          <mxGeometry x="666" y="707" width="151" height="23" as="geometry" />
        </mxCell>
        <mxCell id="QPjvkbg2EBSWsGoP1NiQ-90" value="Yes" style="text;html=1;align=center;verticalAlign=middle;resizable=0;points=[];autosize=1;strokeColor=none;fillColor=none;fontColor=#1D3557;labelBackgroundColor=none;" parent="WIyWlLk6GJQsqaUBKTNV-1" vertex="1">
          <mxGeometry x="504" y="643" width="38" height="26" as="geometry" />
        </mxCell>
        <mxCell id="QPjvkbg2EBSWsGoP1NiQ-91" value="No" style="text;html=1;align=center;verticalAlign=middle;resizable=0;points=[];autosize=1;strokeColor=none;fillColor=none;fontColor=#1D3557;labelBackgroundColor=none;" parent="WIyWlLk6GJQsqaUBKTNV-1" vertex="1">
          <mxGeometry x="656.5" y="643" width="33" height="26" as="geometry" />
        </mxCell>
        <mxCell id="QPjvkbg2EBSWsGoP1NiQ-96" style="edgeStyle=orthogonalEdgeStyle;rounded=0;orthogonalLoop=1;jettySize=auto;html=1;entryX=0;entryY=0.5;entryDx=0;entryDy=0;strokeColor=#457B9D;fontColor=default;fillColor=#A8DADC;labelBackgroundColor=none;" parent="WIyWlLk6GJQsqaUBKTNV-1" target="QPjvkbg2EBSWsGoP1NiQ-95" edge="1">
          <mxGeometry relative="1" as="geometry">
            <mxPoint x="597.0000000000005" y="768.9999999999995" as="sourcePoint" />
            <Array as="points">
              <mxPoint x="597" y="810" />
              <mxPoint x="959" y="810" />
            </Array>
          </mxGeometry>
        </mxCell>
        <mxCell id="QPjvkbg2EBSWsGoP1NiQ-92" value="" style="rhombus;whiteSpace=wrap;html=1;strokeColor=#457B9D;fontColor=#1D3557;fillColor=#A8DADC;labelBackgroundColor=none;" parent="WIyWlLk6GJQsqaUBKTNV-1" vertex="1">
          <mxGeometry x="569" y="743" width="56" height="56" as="geometry" />
        </mxCell>
        <mxCell id="QPjvkbg2EBSWsGoP1NiQ-94" style="edgeStyle=orthogonalEdgeStyle;rounded=0;orthogonalLoop=1;jettySize=auto;html=1;entryX=1;entryY=0.5;entryDx=0;entryDy=0;strokeColor=#457B9D;fontColor=default;fillColor=#A8DADC;labelBackgroundColor=none;" parent="WIyWlLk6GJQsqaUBKTNV-1" source="QPjvkbg2EBSWsGoP1NiQ-87" target="QPjvkbg2EBSWsGoP1NiQ-92" edge="1">
          <mxGeometry relative="1" as="geometry">
            <Array as="points">
              <mxPoint x="742" y="771" />
            </Array>
          </mxGeometry>
        </mxCell>
        <mxCell id="QPjvkbg2EBSWsGoP1NiQ-105" style="edgeStyle=orthogonalEdgeStyle;rounded=0;orthogonalLoop=1;jettySize=auto;html=1;exitX=0.5;exitY=1;exitDx=0;exitDy=0;entryX=0.5;entryY=0;entryDx=0;entryDy=0;strokeColor=#457B9D;fontColor=default;fillColor=#A8DADC;labelBackgroundColor=none;" parent="WIyWlLk6GJQsqaUBKTNV-1" edge="1">
          <mxGeometry relative="1" as="geometry">
            <mxPoint x="986.5" y="839" as="sourcePoint" />
            <mxPoint x="987.5" y="881" as="targetPoint" />
            <Array as="points">
              <mxPoint x="986.5" y="881" />
            </Array>
          </mxGeometry>
        </mxCell>
        <mxCell id="QPjvkbg2EBSWsGoP1NiQ-95" value="" style="rhombus;whiteSpace=wrap;html=1;strokeColor=#457B9D;fontColor=#1D3557;fillColor=#A8DADC;labelBackgroundColor=none;" parent="WIyWlLk6GJQsqaUBKTNV-1" vertex="1">
          <mxGeometry x="959" y="783" width="56" height="56" as="geometry" />
        </mxCell>
        <mxCell id="QPjvkbg2EBSWsGoP1NiQ-97" value="Yes" style="text;html=1;align=center;verticalAlign=middle;resizable=0;points=[];autosize=1;strokeColor=none;fillColor=none;fontColor=#1D3557;labelBackgroundColor=none;" parent="WIyWlLk6GJQsqaUBKTNV-1" vertex="1">
          <mxGeometry x="591" y="267" width="38" height="26" as="geometry" />
        </mxCell>
        <mxCell id="QPjvkbg2EBSWsGoP1NiQ-102" value="" style="ellipse;html=1;shape=endState;fillColor=#A8DADC;strokeColor=#457B9D;fontColor=#1D3557;labelBackgroundColor=none;" parent="WIyWlLk6GJQsqaUBKTNV-1" vertex="1">
          <mxGeometry x="973" y="947" width="30" height="30" as="geometry" />
        </mxCell>
        <mxCell id="QPjvkbg2EBSWsGoP1NiQ-104" style="edgeStyle=orthogonalEdgeStyle;rounded=0;orthogonalLoop=1;jettySize=auto;html=1;entryX=0.5;entryY=0;entryDx=0;entryDy=0;strokeColor=#457B9D;fontColor=default;fillColor=#A8DADC;labelBackgroundColor=none;" parent="WIyWlLk6GJQsqaUBKTNV-1" edge="1">
          <mxGeometry relative="1" as="geometry">
            <mxPoint x="987" y="911" as="sourcePoint" />
            <mxPoint x="988" y="947" as="targetPoint" />
          </mxGeometry>
        </mxCell>
        <mxCell id="QPjvkbg2EBSWsGoP1NiQ-103" value="End Game" style="rounded=1;whiteSpace=wrap;html=1;arcSize=40;fontColor=#1D3557;fillColor=#A8DADC;strokeColor=#457B9D;labelBackgroundColor=none;" parent="WIyWlLk6GJQsqaUBKTNV-1" vertex="1">
          <mxGeometry x="936.25" y="881" width="103.5" height="30" as="geometry" />
        </mxCell>
        <mxCell id="fZYHznT9-mn0ANS-ETf3-13" style="edgeStyle=none;rounded=0;orthogonalLoop=1;jettySize=auto;html=1;entryX=0.058;entryY=0.726;entryDx=0;entryDy=0;entryPerimeter=0;" edge="1" parent="WIyWlLk6GJQsqaUBKTNV-1" source="fZYHznT9-mn0ANS-ETf3-0" target="fZYHznT9-mn0ANS-ETf3-4">
          <mxGeometry relative="1" as="geometry">
            <mxPoint x="-542" y="238" as="targetPoint" />
          </mxGeometry>
        </mxCell>
        <mxCell id="fZYHznT9-mn0ANS-ETf3-14" style="edgeStyle=none;rounded=0;orthogonalLoop=1;jettySize=auto;html=1;entryX=0;entryY=0.5;entryDx=0;entryDy=0;" edge="1" parent="WIyWlLk6GJQsqaUBKTNV-1" source="fZYHznT9-mn0ANS-ETf3-0" target="fZYHznT9-mn0ANS-ETf3-5">
          <mxGeometry relative="1" as="geometry" />
        </mxCell>
        <mxCell id="fZYHznT9-mn0ANS-ETf3-15" style="edgeStyle=none;rounded=0;orthogonalLoop=1;jettySize=auto;html=1;" edge="1" parent="WIyWlLk6GJQsqaUBKTNV-1" source="fZYHznT9-mn0ANS-ETf3-0" target="fZYHznT9-mn0ANS-ETf3-6">
          <mxGeometry relative="1" as="geometry" />
        </mxCell>
        <mxCell id="fZYHznT9-mn0ANS-ETf3-17" style="edgeStyle=none;rounded=0;orthogonalLoop=1;jettySize=auto;html=1;entryX=0.014;entryY=0.404;entryDx=0;entryDy=0;entryPerimeter=0;" edge="1" parent="WIyWlLk6GJQsqaUBKTNV-1" source="fZYHznT9-mn0ANS-ETf3-0" target="fZYHznT9-mn0ANS-ETf3-8">
          <mxGeometry relative="1" as="geometry" />
        </mxCell>
        <mxCell id="fZYHznT9-mn0ANS-ETf3-0" value="Player" style="shape=umlActor;verticalLabelPosition=bottom;verticalAlign=top;html=1;outlineConnect=0;" vertex="1" parent="WIyWlLk6GJQsqaUBKTNV-1">
          <mxGeometry x="-741" y="349" width="30" height="60" as="geometry" />
        </mxCell>
        <mxCell id="fZYHznT9-mn0ANS-ETf3-4" value="Start Game" style="ellipse;whiteSpace=wrap;html=1;" vertex="1" parent="WIyWlLk6GJQsqaUBKTNV-1">
          <mxGeometry x="-590" y="196" width="120" height="49" as="geometry" />
        </mxCell>
        <mxCell id="fZYHznT9-mn0ANS-ETf3-5" value="Select Level" style="ellipse;whiteSpace=wrap;html=1;" vertex="1" parent="WIyWlLk6GJQsqaUBKTNV-1">
          <mxGeometry x="-574" y="260" width="120" height="49" as="geometry" />
        </mxCell>
        <mxCell id="fZYHznT9-mn0ANS-ETf3-6" value="Control Character" style="ellipse;whiteSpace=wrap;html=1;" vertex="1" parent="WIyWlLk6GJQsqaUBKTNV-1">
          <mxGeometry x="-574" y="331" width="120" height="58" as="geometry" />
        </mxCell>
        <mxCell id="fZYHznT9-mn0ANS-ETf3-8" value="Adjust Setting" style="ellipse;whiteSpace=wrap;html=1;" vertex="1" parent="WIyWlLk6GJQsqaUBKTNV-1">
          <mxGeometry x="-574" y="407" width="120" height="49" as="geometry" />
        </mxCell>
        <mxCell id="fZYHznT9-mn0ANS-ETf3-9" value="View Scores" style="ellipse;whiteSpace=wrap;html=1;" vertex="1" parent="WIyWlLk6GJQsqaUBKTNV-1">
          <mxGeometry x="-594" y="474" width="120" height="49" as="geometry" />
        </mxCell>
        <mxCell id="fZYHznT9-mn0ANS-ETf3-18" style="edgeStyle=none;rounded=0;orthogonalLoop=1;jettySize=auto;html=1;entryX=0.063;entryY=0.277;entryDx=0;entryDy=0;entryPerimeter=0;" edge="1" parent="WIyWlLk6GJQsqaUBKTNV-1" source="fZYHznT9-mn0ANS-ETf3-0" target="fZYHznT9-mn0ANS-ETf3-9">
          <mxGeometry relative="1" as="geometry" />
        </mxCell>
      </root>
    </mxGraphModel>
  </diagram>
</mxfile>
